<svg version="1.2" xmlns="http://www.w3.org/2000/svg" viewBox="0 0 917 127" width="917" height="127">
	<title>logo</title>
	<style>
		.s0 { fill: #000000 } 
		.s1 { fill: #ffc50d } 
	</style>
	<g>
		<g id="_Слой_1">
			<g>
				<path class="s0" d="m5.6 112.1v-105.2h13.4l51.5 81.4-1.7 1.9v-83.3h14.6v105.2h-13.5l-51.4-80.2 1.7-1.9v82h-14.6z"/>
				<path class="s0" d="m116.6 76.7c0 3.6 0.6 6.8 1.9 9.7 1.3 2.9 3 5.4 5.1 7.6 2.1 2.1 4.8 3.8 7.9 5q4.6 1.8 10.2 1.8c6.1 0 11.1-1.5 15.1-4.5 3.9-3 6.6-7 7.9-12.1h14.4c-1.6 9.3-5.7 16.5-12.2 21.7-6.6 5.2-15 7.8-25.3 7.8-10.3 0-11.1-0.9-15.9-2.7-4.8-1.8-8.9-4.4-12.3-7.9-3.4-3.5-6.1-7.5-7.9-12.2-1.9-4.8-2.8-10-2.8-15.7 0-5.7 0.9-11.1 2.8-15.8 1.9-4.7 4.5-8.8 7.9-12.2 3.4-3.4 7.5-6 12.3-7.9q7.2-2.7 15.9-2.7c5.8 0 10.6 0.8 15.3 2.5 4.6 1.7 8.6 4.1 11.9 7.2 3.3 3.1 5.8 6.9 7.6 11.3 1.8 4.4 2.7 9.5 2.7 15.1v4h-62.4zm47.7-10.8c-1.2-5.4-3.7-9.7-7.6-12.8-3.9-3.1-8.9-4.6-15.1-4.6-6.2 0-11.3 1.6-15.5 4.9-4.2 3.3-7 7.4-8.5 12.5z"/>
				<path class="s0" d="m213.8 109.8c-5.3-1.6-9.6-4.1-13-7.4-3.4-3.3-5.8-7.6-7.3-12.7-1.5-5.1-2.3-11.2-2.3-18.3v-48.8h14.1v50.7c0 4.6 0.5 8.6 1.4 11.7 0.9 3.1 2.5 5.8 4.7 7.8 2.2 2 5 3.5 8.5 4.4 3.5 0.9 7.9 1.4 13.1 1.4v13.5q-11.3 0-19.2-2.4zm19.2-70.9v12.6h-32.9v-12.6z"/>
				<path class="s0" d="m258.5 112.2h-14.1v-111.2h14.1v52.8h1.5c0-2 0.5-4 1.6-6 1.1-2 2.7-3.9 4.8-5.5 2.1-1.6 4.8-3 7.9-4.1 3.1-1.1 6.8-1.6 11-1.6 4.2 0 9.9 0.8 14 2.4 4.1 1.6 7.6 3.9 10.4 6.9 2.8 3 5 6.6 6.5 10.8 1.5 4.2 2.2 8.9 2.2 14.1v41.4h-14.1v-40.9c0-6.9-1.9-12.2-5.6-15.9-3.7-3.7-9-5.6-15.9-5.6-6.9 0-7.3 0.6-10.4 1.9-3.1 1.2-5.6 2.9-7.7 5.1-2.1 2.2-3.6 4.7-4.7 7.6-1.1 2.9-1.6 6.1-1.6 9.6v38.3z"/>
				<path class="s0" d="m344.8 76.7c0 3.6 0.6 6.8 1.9 9.7 1.3 2.9 3 5.4 5.1 7.6 2.1 2.1 4.8 3.8 7.9 5q4.6 1.8 10.2 1.8 9.2 0 15-4.5c3.9-3 6.5-7 7.9-12.1h14.4c-1.6 9.3-5.7 16.5-12.2 21.7-6.6 5.2-15 7.8-25.3 7.8-10.3 0-11.1-0.9-15.9-2.7-4.8-1.8-8.9-4.4-12.3-7.9-3.4-3.5-6.1-7.5-7.9-12.2-1.9-4.8-2.8-10-2.8-15.7 0-5.7 0.9-11.1 2.8-15.8 1.9-4.7 4.5-8.8 7.9-12.2 3.4-3.4 7.5-6 12.3-7.9q7.2-2.7 15.9-2.7c5.8 0 10.6 0.8 15.3 2.5 4.6 1.7 8.6 4.1 11.9 7.2 3.3 3.1 5.8 6.9 7.6 11.3 1.8 4.4 2.7 9.5 2.7 15.1v4zm47.7-10.8c-1.2-5.4-3.7-9.7-7.6-12.8-3.9-3.1-8.9-4.6-15-4.6-6.1 0-11.3 1.6-15.5 4.9-4.2 3.3-7 7.4-8.5 12.5h46.7z"/>
				<path class="s0" d="m433.5 112.2h-14.1v-36.3q0-9 2.7-16.2c1.8-4.8 4.4-8.9 7.8-12.2 3.4-3.3 7.5-5.9 12.3-7.7 4.8-1.8 10.2-2.7 16.1-2.7v13.5c-3.8 0-7.1 0.5-10.2 1.6-3 1.1-5.6 2.6-7.8 4.7-2.2 2-3.9 4.5-5 7.4q-1.8 4.3-1.8 9.9v38.1z"/>
				<path class="s0" d="m477.8 76.7c0 3.6 0.6 6.8 1.9 9.7 1.3 2.9 3 5.4 5.1 7.6 2.1 2.1 4.8 3.8 7.9 5q4.6 1.8 10.2 1.8c6.1 0 11.1-1.5 15.1-4.5 3.9-3 6.5-7 7.9-12.1h14.4c-1.6 9.3-5.7 16.5-12.2 21.7-6.6 5.2-15 7.8-25.3 7.8-10.3 0-11.1-0.9-15.9-2.7-4.8-1.8-8.9-4.4-12.3-7.9-3.4-3.5-6.1-7.5-7.9-12.2-1.9-4.8-2.8-10-2.8-15.7 0-5.7 0.9-11.1 2.8-15.8 1.9-4.7 4.5-8.8 7.9-12.2 3.4-3.4 7.5-6 12.3-7.9q7.2-2.7 15.9-2.7c5.8 0 10.6 0.8 15.3 2.5 4.7 1.7 8.6 4.1 11.9 7.2 3.3 3.1 5.8 6.9 7.6 11.3 1.8 4.4 2.7 9.5 2.7 15.1v4h-62.4zm47.8-10.8c-1.2-5.4-3.7-9.7-7.6-12.8-3.9-3.1-8.9-4.6-15-4.6-6.1 0-11.3 1.6-15.5 4.9-4.2 3.3-7 7.4-8.5 12.5h46.7z"/>
				<path class="s0" d="m589.9 83.8c-5.1 0-9.4 0.4-12.8 1.3-3.4 0.9-6 2.1-7.8 3.7-1.8 1.6-3.1 3.4-3.8 5.5-0.7 2.1-1 4.2-1 6.5v11.3h-14.1v-11.6c0-4.9 0.8-9 2.5-12.2 1.7-3.2 3.7-5.8 6.1-7.6 2.4-1.8 4.9-3.2 7.5-3.9 2.6-0.7 4.9-1 6.8-1v-1.5c-1.9 0-4.1-0.4-6.8-1q-3.9-1-7.5-3.9c-2.4-1.9-4.4-4.4-6.1-7.6-1.7-3.2-2.5-7.3-2.5-12.2v-11.6h14.1v11.3c0 2.3 0.3 4.4 1 6.5 0.7 2.1 2 3.9 3.8 5.5 1.8 1.6 4.4 2.8 7.8 3.7 3.4 0.9 7.6 1.3 12.8 1.3 5.2 0 9.5-0.4 12.9-1.3 3.4-0.9 6-2.1 7.9-3.7 1.9-1.6 3.1-3.4 3.8-5.5 0.7-2.1 1-4.2 1-6.5v-11.3h14.1v11.6c0 4.9-0.8 9-2.5 12.2-1.7 3.2-3.7 5.8-6.1 7.6-2.4 1.8-4.8 3.2-7.4 3.9-2.6 0.7-4.8 1-6.7 1v1.5c1.9 0 4.1 0.4 6.7 1 2.6 0.7 5 2 7.4 3.9 2.4 1.9 4.4 4.4 6.1 7.6 1.7 3.2 2.5 7.3 2.5 12.2v11.6h-14.1v-11.3c0-2.3-0.3-4.4-1-6.5-0.7-2.1-1.9-3.9-3.8-5.5-1.9-1.6-4.5-2.8-7.9-3.7-3.4-0.9-7.7-1.3-12.9-1.3z"/>
			</g>
			<g>
				<path class="s1" d="m712.9 92.6c-4-0.9-7.4-2.1-10.4-3.8-3-1.6-5.4-3.6-7.2-5.9q-2.7-3.5-2.7-7.8v-1h-1.5v40h-14.1v-64.1c0-6.3 1.1-12 3.2-17.1 2.1-5.1 5.2-9.4 9.1-12.9 4-3.6 8.8-6.3 14.7-8.1 5.8-1.9 12.3-2.8 19.5-2.8 7.2 0 13.8 1 19.5 3q8.6 3 14.7 8.4c4 3.7 7.1 8.1 9.2 13.4 2.1 5.3 3.2 11.3 3.2 18 0 6.7-1.1 12.6-3.2 17.8q-3.1 7.9-9 13.2c-3.8 3.6-8.5 6.3-14.1 8.2-5.5 1.9-11.7 2.9-18.7 2.9-7 0-8.5-0.4-12.4-1.3zm-19.6-29.4c1.5 3.5 3.7 6.6 6.5 9.2 2.8 2.6 6.4 4.7 10.6 6.2 4.2 1.5 9 2.2 14.3 2.2 9.9 0 17.6-2.5 23.1-7.6 5.5-5.1 8.3-12.3 8.3-21.5 0-9.2-2.8-16.9-8.4-22-5.6-5.1-13.7-7.6-24.1-7.6-10.4 0-18.8 2.5-24.3 7.4q-8.1 7.3-8.1 22.2c0 9.9 0.7 8 2.2 11.5z"/>
				<path class="s1" d="m794.1 114h-14.1v-36.3q0-9 2.7-16.2c1.8-4.8 4.4-8.9 7.8-12.2 3.4-3.4 7.5-5.9 12.3-7.7 4.8-1.8 10.1-2.7 16.1-2.7v13.5c-3.8 0-7.1 0.5-10.1 1.6-3 1.1-5.6 2.6-7.8 4.7-2.2 2-3.8 4.5-5 7.4-1.2 2.9-1.8 6.2-1.8 9.8v38z"/>
				<path class="s1" d="m827.1 61.3c1.9-4.7 4.5-8.7 7.9-12.1q5.1-5.1 12.3-7.8 7.2-2.7 15.9-2.7 8.7 0 15.9 2.7 7.2 2.7 12.3 7.8c3.4 3.4 6 7.4 7.9 12.1 1.9 4.7 2.8 9.9 2.8 15.8 0 5.9-0.9 10.9-2.8 15.7-1.9 4.7-4.5 8.8-7.9 12.2q-5.1 5.1-12.3 7.8-7.2 2.7-15.9 2.7-8.7 0-15.9-2.7-7.2-2.7-12.3-7.8c-3.4-3.4-6-7.5-7.9-12.2-1.9-4.7-2.8-10-2.8-15.7 0-5.7 0.9-11.1 2.8-15.8zm13 26c1.2 3.1 2.9 5.8 5 8 2.2 2.2 4.8 3.9 7.9 5.2 3.1 1.2 6.5 1.9 10.1 1.9 3.6 0 7-0.6 10.1-1.9 3.1-1.2 5.8-3 7.9-5.2 2.2-2.2 3.8-4.9 5-8 1.2-3.1 1.8-6.5 1.8-10.3 0-3.8-0.6-7.2-1.8-10.3-1.2-3.1-2.9-5.8-5-8-2.2-2.2-4.8-3.9-7.9-5.2-3.1-1.3-6.5-1.9-10.1-1.9-3.6 0-7 0.6-10.1 1.9-3.1 1.2-5.8 3-7.9 5.2-2.2 2.2-3.8 4.9-5 8-1.2 3.1-1.8 6.5-1.8 10.3 0 3.8 0.6 7.2 1.8 10.3z"/>
			</g>
			<path fill-rule="evenodd" class="s1" d="m427.3 43.2c-5.3 0-9.5-4.2-9.5-9.5 0-5.3 4.2-9.5 9.5-9.5 5.3 0 9.5 4.2 9.5 9.5 0 5.3-4.2 9.5-9.5 9.5z"/>
		</g>
	</g>
</svg>